HIERARCHY
ROOT root
{
	OFFSET 0.000000 0.000000 0.000000
	CHANNELS 6 Xposition Yposition Zposition Zrotation Yrotation Xrotation
	JOINT lhip
	{
		OFFSET 0.058581 -0.082280 -0.017664
		CHANNELS 3 Zrotation Yrotation Xrotation
		JOINT lknee
		{
			OFFSET 0.043451 -0.386469 0.008037
			CHANNELS 3 Zrotation Yrotation Xrotation
			JOINT lankle
			{
				OFFSET -0.014790 -0.426874 -0.037428
				CHANNELS 3 Zrotation Yrotation Xrotation
				JOINT ltoe
				{
					OFFSET 0.041054 -0.060286 0.122042
					CHANNELS 3 Zrotation Yrotation Xrotation
					End Site
					{
						OFFSET 0.000000 0.000000 0.000000
					}
				}
			}
		}
	}
	JOINT rhip
	{
		OFFSET -0.060310 -0.090513 -0.013543
		CHANNELS 3 Zrotation Yrotation Xrotation
		JOINT rknee
		{
			OFFSET -0.043257 -0.383688 -0.004843
			CHANNELS 3 Zrotation Yrotation Xrotation
			JOINT rankle
			{
				OFFSET 0.019056 -0.420046 -0.034562
				CHANNELS 3 Zrotation Yrotation Xrotation
				JOINT rtoe
				{
					OFFSET -0.034840 -0.062106 0.130323
					CHANNELS 3 Zrotation Yrotation Xrotation
					End Site
					{
						OFFSET 0.000000 0.000000 0.000000
					}
				}
			}
		}
	}
	JOINT lowerback
	{
		OFFSET 0.004439 0.124404 -0.038385
		CHANNELS 3 Zrotation Yrotation Xrotation
		JOINT upperback
		{
			OFFSET 0.004488 0.137956 0.026820
			CHANNELS 3 Zrotation Yrotation Xrotation
			JOINT chest
			{
				OFFSET -0.002265 0.056032 0.002855
				CHANNELS 3 Zrotation Yrotation Xrotation
				JOINT lowerneck
				{
					OFFSET -0.013390 0.211636 -0.033468
					CHANNELS 3 Zrotation Yrotation Xrotation
					JOINT upperneck
					{
						OFFSET 0.010113 0.088937 0.050410
						CHANNELS 3 Zrotation Yrotation Xrotation
						End Site
						{
							OFFSET 0.000000 0.000000 0.000000
						}
					}
				}
				JOINT lclavicle
				{
					OFFSET 0.071702 0.114000 -0.018898
					CHANNELS 3 Zrotation Yrotation Xrotation
					JOINT lshoulder
					{
						OFFSET 0.122921 0.045205 -0.019046
						CHANNELS 3 Zrotation Yrotation Xrotation
						JOINT lelbow
						{
							OFFSET 0.255332 -0.015649 -0.022946
							CHANNELS 3 Zrotation Yrotation Xrotation
							JOINT lwrist
							{
								OFFSET 0.265709 0.012698 -0.007375
								CHANNELS 3 Zrotation Yrotation Xrotation
								End Site
								{
									OFFSET 0.000000 0.000000 0.000000
								}
							}
						}
					}
				}
				JOINT rclavicle
				{
					OFFSET -0.082954 0.112472 -0.023707
					CHANNELS 3 Zrotation Yrotation Xrotation
					JOINT rshoulder
					{
						OFFSET -0.113228 0.046853 -0.008472
						CHANNELS 3 Zrotation Yrotation Xrotation
						JOINT relbow
						{
							OFFSET -0.260127 -0.014369 -0.031269
							CHANNELS 3 Zrotation Yrotation Xrotation
							JOINT rwrist
							{
								OFFSET -0.269108 0.006794 -0.006027
								CHANNELS 3 Zrotation Yrotation Xrotation
								End Site
								{
									OFFSET 0.000000 0.000000 0.000000
								}
							}
						}
					}
				}
			}
		}
	}
}
MOTION
Frames: 14
Frame Time: 0.033333
1.081014 0.771072 0.983285 -89.989169 0.449369 84.886511 0.884878 -1.376671 -1.139867 0.427020 -7.382977 8.711170 0.729835 12.203716 -12.184329 0.000000 -0.000000 0.000000 0.281479 -1.732641 -0.168559 -2.816262 0.193136 10.478816 1.357861 -10.541501 -13.408017 0.000000 -0.000000 0.000000 -1.418944 3.451136 8.814624 -0.416645 -2.420509 5.303855 -1.245968 -0.036851 -1.958559 3.859135 -0.559025 -7.548876 5.082439 -3.074806 8.120319 -28.492780 -5.187427 -0.843315 -49.005755 -7.562477 13.621935 3.420990 -20.990090 2.505825 -3.859323 -3.716613 4.256369 28.580885 8.436435 0.737531 53.765666 4.512929 18.516007 -7.107977 28.427579 4.654380 -0.038406 5.164705 7.741043 
1.082018 0.771601 0.983467 -90.349926 0.362267 85.142492 0.956722 -1.327272 -1.659980 0.226771 -7.200413 9.047692 0.841439 12.310627 -12.099925 0.000000 -0.000000 0.000000 0.153345 -1.469022 -0.776267 -2.614343 0.339616 10.892173 1.363625 -10.621909 -13.467690 0.000000 -0.000000 0.000000 -1.520104 4.064100 8.783763 -0.413345 -2.223777 5.632330 -1.268738 -0.122311 -1.878492 3.874521 -0.549654 -7.579319 5.149427 -3.350564 7.074086 -27.844746 -4.740578 -1.279391 -48.645812 -7.188872 13.540700 3.767365 -21.015468 1.019363 -3.662970 -3.937645 4.051543 28.159207 8.298278 0.438696 53.197069 4.870110 18.036594 -7.102414 29.039685 3.847874 0.371380 5.262936 7.009788 
1.083896 0.772072 0.983504 -90.208188 0.385952 85.387879 1.064764 -1.624948 -2.531007 0.013354 -7.151054 9.879429 0.772409 12.338771 -12.155705 0.000000 -0.000000 0.000000 0.191148 -1.382609 -1.446529 -2.554203 0.288740 11.418011 1.385719 -10.846808 -13.796431 0.000000 -0.000000 0.000000 -1.523079 4.331296 9.203685 -0.418936 -2.171721 5.542391 -1.228243 -0.191347 -1.578625 3.956831 -0.493610 -8.128304 5.244756 -3.728482 6.307014 -27.259264 -4.499379 -1.434132 -48.131129 -6.850997 12.978474 4.036495 -20.949362 -0.239404 -4.210047 -3.784271 3.283742 27.836039 8.569885 0.382283 52.334003 5.161294 17.774362 -7.190411 29.531560 3.525337 0.819874 5.200687 6.790332 
1.085302 0.772296 0.983274 -89.740707 0.374244 85.495490 1.053205 -1.956258 -3.388827 -0.209839 -7.409796 10.932970 0.726679 12.616748 -12.377594 0.000000 -0.000000 0.000000 0.206315 -1.043776 -1.932323 -2.512448 0.088590 12.057958 1.234486 -11.684094 -14.418860 0.000000 -0.000000 0.000000 -1.518236 4.372510 10.055975 -0.428212 -2.210898 5.235878 -1.226304 -0.156970 -1.098325 3.979940 -0.457765 -8.692127 5.493936 -3.917916 5.217016 -26.657425 -4.048128 -1.706139 -47.324671 -6.240934 12.133010 4.718325 -20.723479 -1.051337 -5.694874 -3.392664 3.135715 27.511893 8.752454 0.116416 51.091936 5.037610 17.382065 -7.736309 30.556044 3.762027 1.774602 5.358495 7.253762 
1.085682 0.772832 0.983229 -89.592209 0.494518 85.592538 1.277191 -2.074241 -3.981648 -0.428614 -7.437355 11.762817 0.715505 12.673470 -12.635742 0.000000 -0.000000 0.000000 0.386507 -1.107169 -2.217640 -2.516994 0.127874 12.420257 1.279887 -11.928829 -14.933186 0.000000 -0.000000 0.000000 -1.489268 4.538004 10.620175 -0.389864 -2.176948 4.884775 -1.123284 -0.079599 -0.910069 4.125488 -0.548486 -8.608859 5.504609 -4.060552 4.472874 -25.899985 -3.547828 -2.028749 -47.083050 -5.580073 11.962838 4.502484 -20.651148 -1.398035 -6.773062 -2.787106 2.382512 26.797283 8.773458 -0.269095 50.855863 4.943763 17.442742 -7.553791 30.477932 4.209385 3.520089 4.555420 6.814508 
1.087235 0.773705 0.982693 -89.433285 0.550912 85.933769 1.499044 -2.401415 -5.258427 -0.853427 -7.469520 13.252683 0.717421 12.929410 -13.194348 0.000000 -0.000000 0.000000 0.480521 -1.076428 -3.387218 -2.395922 0.103695 13.808673 1.115304 -12.451536 -16.046816 0.000000 -0.000000 0.000000 -1.638003 4.778917 11.044858 -0.263728 -2.171033 4.817987 -1.024280 0.082087 -0.649790 4.201011 -0.503289 -9.098690 5.510554 -4.582303 3.770492 -24.943561 -2.995180 -2.395919 -46.523153 -4.972161 11.424576 4.433339 -19.956549 -2.072057 -7.994017 -2.443786 2.129514 26.416355 9.109372 -0.512703 49.778286 5.329283 17.068498 -7.730238 30.157146 4.098075 4.088940 4.436376 7.372004 
1.087840 0.774741 0.981723 -89.215102 0.643466 86.067390 1.732497 -2.539309 -6.223739 -1.265862 -7.620271 14.707316 0.764139 13.110519 -13.848943 0.000000 -0.000000 0.000000 0.583311 -1.368295 -4.279342 -2.748410 -1.031868 15.377367 0.058432 -14.073151 -17.360772 0.000000 -0.000000 0.000000 -1.649482 4.916758 11.768490 -0.185260 -2.008002 4.690363 -0.933482 0.143128 -0.382756 4.470334 -0.573009 -9.431056 5.490039 -5.053182 2.998156 -24.029489 -2.263036 -2.643733 -45.718570 -4.181108 10.909354 4.417059 -19.948029 -2.819938 -8.457856 -2.580119 1.744679 26.011020 9.492909 -0.946680 48.593604 5.598141 16.689278 -7.785996 29.904524 4.205497 4.548083 4.522484 7.736973 
1.088104 0.775796 0.980064 -88.903624 0.778231 86.335004 2.055083 -2.704363 -7.487706 -1.715236 -7.641157 16.482732 0.523086 13.319161 -14.782554 0.000000 -0.000000 0.000000 0.655793 -1.984301 -5.125123 -3.107379 -2.302321 16.581473 -1.018485 -15.360780 -18.629744 0.000000 -0.000000 0.000000 -1.589168 5.119884 12.425092 -0.113007 -1.954151 4.651135 -0.796584 0.132484 -0.162964 4.666882 -0.458351 -9.797934 5.474681 -5.457943 1.861264 -22.872938 -1.295292 -2.891501 -45.304737 -3.177776 10.158311 4.758006 -20.100631 -3.959002 -8.290510 -2.385975 0.941988 25.312710 9.762082 -1.387135 47.629303 6.139277 16.022015 -7.757943 29.665890 3.873875 4.468425 4.394472 7.573030 
1.088573 0.777168 0.977661 -88.875215 0.887150 86.736840 2.489044 -3.186143 -8.926781 -2.327353 -7.504647 18.373935 0.643639 13.608392 -16.009836 0.000000 -0.000000 0.000000 0.699249 -2.005666 -6.330421 -2.903071 -2.554737 17.924988 -1.594044 -15.738586 -19.170516 0.000000 -0.000000 0.000000 -1.535774 5.349171 13.362471 -0.124309 -1.790634 4.381010 -0.715709 0.352239 0.102842 4.886144 -0.509358 -10.576405 5.553625 -5.890673 0.740597 -22.019333 -0.233739 -3.118940 -44.717551 -1.971701 9.209470 5.706088 -20.307740 -5.732462 -8.718583 -2.426490 -0.242979 24.851042 9.929919 -1.800841 46.597237 6.577243 15.445860 -8.145616 30.097512 3.664862 5.697868 4.265477 7.365718 
1.090373 0.778759 0.974095 -88.820234 0.899570 87.717177 2.850273 -3.231353 -11.624801 -3.304506 -7.776583 21.353194 1.115059 13.904929 -17.923868 0.000000 -0.000000 0.000000 0.744099 -2.237091 -9.199726 -2.718555 -2.364657 21.064600 -1.838305 -15.865250 -19.707742 0.000000 -0.000000 0.000000 -1.556525 5.610163 14.488095 -0.092464 -1.552275 4.112223 -0.778016 0.726643 0.230474 5.168040 -0.950451 -11.753122 5.802110 -6.330340 -0.834341 -20.925715 1.183026 -3.751036 -43.980649 -0.319929 8.366413 6.725861 -20.530739 -8.540549 -7.885209 -2.375790 -1.449621 24.011824 10.138489 -2.394939 45.426136 6.979480 14.936356 -8.101821 31.403526 3.173688 5.652680 4.363329 7.177338 
1.093512 0.779843 0.968571 -88.696787 1.099278 88.732339 3.721582 -4.266071 -14.626672 -4.076519 -6.604259 24.617257 -0.254874 13.455327 -21.366310 0.000000 -0.000000 0.000000 0.799067 -1.093431 -12.250899 -2.791131 -3.633212 24.447645 0.525869 -15.871700 -23.064469 0.000000 -0.000000 0.000000 -1.102825 4.640835 16.980617 -0.958299 0.210917 -0.947774 -0.145341 0.841518 4.241544 6.161133 1.832887 -14.304960 3.798472 -9.735371 -2.310038 -21.083902 3.729290 -3.296829 -41.881825 -2.027636 3.378973 3.736591 -20.450189 -2.263417 -4.711493 -1.827925 -6.485451 22.891073 7.175309 -2.147906 44.528512 10.819894 15.233483 -6.820578 33.900290 9.199458 6.782256 0.078289 1.818718 
1.095191 0.780691 0.962844 -88.491316 1.324622 89.651138 4.465710 -4.089441 -17.391650 -5.121945 -6.529912 27.838105 -0.011360 13.107117 -22.802806 0.000000 -0.000000 0.000000 0.710472 -1.429255 -14.737817 -2.469701 -4.280143 27.135847 0.579425 -15.292692 -23.917835 0.000000 -0.000000 0.000000 -0.546351 4.653898 18.992929 -1.431570 0.689814 -2.069934 -0.091387 1.151311 4.672317 6.338778 1.638943 -16.118236 4.185341 -10.030016 -4.210495 -20.502692 4.092856 -3.386761 -41.227960 -0.809702 1.979497 4.503364 -20.621056 -2.873578 -1.720918 -1.678634 -6.541368 21.175072 7.399112 -2.289087 44.378553 11.364752 14.593087 -6.282921 35.490637 10.597016 6.040625 0.250566 0.513992 
1.097791 0.782025 0.954249 -88.252612 1.373244 90.861934 5.253165 -4.171953 -21.152486 -6.446363 -5.943467 32.063804 0.540053 12.955520 -24.722465 0.000000 -0.000000 0.000000 0.233513 -1.805891 -18.390113 -1.839477 -4.906243 31.156010 0.599856 -15.052875 -24.858407 0.000000 -0.000000 0.000000 -0.053890 4.700871 21.046824 -1.874831 0.974359 -2.902057 -0.262584 1.457254 4.668719 6.569936 1.166539 -17.933772 4.848875 -10.228993 -6.152739 -20.410045 4.157549 -3.594196 -40.255541 0.363543 0.824910 5.802962 -20.237220 -5.065345 -0.353591 -1.654571 -7.097455 20.078848 8.139831 -2.251303 43.535675 12.098833 13.895047 -5.722119 36.601436 10.939672 5.400358 0.190712 -0.567699 
1.101410 0.783450 0.942331 -88.454073 1.309819 92.175832 6.208152 -4.243910 -25.363156 -7.685697 -4.243455 36.677164 1.097421 12.929873 -26.469630 0.000000 -0.000000 0.000000 -0.368978 -1.813590 -22.673192 -1.402915 -5.435207 35.933480 0.580536 -14.327890 -26.331413 0.000000 -0.000000 0.000000 0.261110 5.190645 23.094782 -2.342724 1.535063 -3.193928 -0.356150 1.795732 4.399422 6.500386 0.559279 -20.005559 5.763822 -10.640066 -8.744396 -20.158609 3.501523 -4.223377 -39.500398 0.779996 -0.569913 6.769855 -18.497045 -8.094741 -0.288894 -1.468783 -6.972750 18.791966 9.241348 -1.863151 42.463368 12.321322 13.032938 -6.042183 38.381408 10.593508 6.082856 0.149082 -1.590542 
